<?xml version="1.0" encoding="UTF-8"?>
<svg id="Layer_1" xmlns="http://www.w3.org/2000/svg" version="1.1" viewBox="0 0 300 300">
  <!-- Generator: Adobe Illustrator 29.7.1, SVG Export Plug-In . SVG Version: 2.1.1 Build 8)  -->
  <path d="M250.19,28.88c-4.38,7.29-38.52,12.73-47.33,13.7-35.18,3.88-99.64.22-129.49,18.01-19.99,11.92-28.13,41.6-12.98,60.48,9.39,11.69,29.74,18.65,44.16,9.87,16.51-10.05,25.07-46.13-1.64-48.39-3.54-.3-8.17-.14-11.54,1.04-11.8,4.14-8.29,26.74,5.05,22.35.65-.21,1.28-.51,1.78-.97,1.63-1.49,1.15-3.26.2-4.82-1.77-2.94-9.36-11.62,1.76-8.9,9.2,2.25,10.69,12.51,7.54,20.9-1.35,3.59-4.21,6.44-7.75,7.92-10.13,4.22-21.63,1.21-27.99-7.56-11.73-16.21-3.86-35.56,13.42-42.92,37.29-15.89,67.88,36.58,35.01,64.51-3.64,3.1-5.73,5.37-9.84,7.45-49.28,24.91-84.39-21.32-80.15-67.44,1.92-20.95,14.65-33.08,33.98-38.52,26.69-7.52,65.73-1.93,95.49-5.01,24.71-2.54,48.31-8.95,70.83-18.64,9.66-4.16,20.65,2.91,20.32,13.42-.05,1.43-.29,2.64-.82,3.51Z"/>
  <path d="M195.92,278.67c.16,5.97-2.4,11.49-2.93,17.33-2.64.3-1.58-.05-2.01-1.47-10.18-33.52-18.4-67.37-25.98-101.53-4.75-21.4-9.99-42.56-12.86-64.64-.91-7.05-3.44-21.57-3.1-27.8.62-11.12,18.12,3.18,18.79,5.11,1.8,5.24.55,14.29,1.18,19.82,2.37,21,5.32,42.61,8.99,63.51,3.22,18.33,8.3,36.36,11.9,54.6,1.88,9.51,5.78,25.91,6.02,35.07Z"/>
  <path d="M263.2,94c-.1,0-.19-.07-.22-.17-1.15-4.63-15.8-24.81-17.95-13.3-.83,4.42-.57,12.43-1.03,17.47-.62,6.82-.95,13.73-1.99,20.51l-2.02,49.49c-1.25-.08-1.63-1.43-2.19-2.31-11.71-18.49-20.88-38.79-31.8-57.69-.15-.27-.34-.86-.95-1.72-3.36-4.7-5.97-10.85-10.04-14.28.45,6.48.25,14.19.96,20.53.52,4.63,1.48,9.25,2.03,14.47,3.03,28.57,6.54,57.3,8.99,85.51,1,11.43,1.45,23.02,2,34.48-1.44.24-1.4-1.76-1.68-2.79-9.74-34.65-17.38-78.39-22.31-114.2-2.41-17.49-7.7-49.92-2.71-66.21,1.36-4.46,4.85-10.06,9.18-4.75,8.18,15.11,15.34,30.87,23.53,45.96,4.74,8.73,9.92,18.23,15.99,26,1.86-9.82.79-20.02,1.01-30,.42-18.74-.36-39.69,7.5-56.98,2.21.04,11.53,16.14,13.02,18.96,2.95,5.6,11.84,24.24,12.44,29.58.22,1.89-.21,1.53-1.76,1.44Z"/>
  <path d="M165.99,99.99c-1.74.46-2-.73-3-1.49-2.29-1.74-13.02-10.49-13.87-12.13-1.62-3.1-1.75-8.92-3.08-12.92-.79-2.38-6.9-12.62-6.03-13.46,10.86,1.48,18.12-5.83,21.72,7.77.96,3.64,5.35,31,4.27,32.22Z"/>
</svg>